<svg width="166" height="43" viewBox="0 0 166 43" fill="none" xmlns="http://www.w3.org/2000/svg">
<path d="M56.0059 33H63.7185C71.3676 33 76.3189 28.017 76.3189 21.1613C76.3189 14.3057 71.3993 9.35442 63.7185 9.35442H56.0059V33ZM60.9255 28.7152V13.6392H63.8454C68.4476 13.6392 71.3993 16.5592 71.3993 21.1613C71.3993 25.7635 68.4476 28.7152 63.8454 28.7152H60.9255ZM95.4369 23.8274C95.4369 19.0348 91.6917 15.2896 86.8357 15.2896C81.8844 15.2896 78.0757 19.13 78.0757 24.3035C78.0757 29.3183 81.6622 33.3809 87.1531 33.3809C90.7078 33.3809 93.5643 31.6987 94.6117 29.1596L90.803 27.3505C90.1365 28.5248 88.8987 29.2548 87.2165 29.2548C84.8678 29.2548 83.3126 27.8583 83.027 25.6683H95.2148C95.3735 25.1922 95.4369 24.5257 95.4369 23.8274ZM83.1222 22.177C83.5983 20.1774 84.9631 19.0983 86.8357 19.0983C88.8035 19.0983 90.2 20.3361 90.3904 22.177H83.1222ZM106.646 15.2896C104.456 15.2896 102.678 16.0831 101.789 17.7653V15.6705H97.346V33H102.107V22.8752C102.107 20.8757 103.408 19.5744 105.281 19.5744C107.153 19.5744 108.455 20.8757 108.455 22.8752V33H113.216V21.8596C113.216 17.924 110.549 15.2896 106.646 15.2896ZM124.383 33.1904C125.113 33.1904 125.97 33.127 126.604 33.0317V29.2865C126.16 29.35 125.779 29.3817 125.494 29.3817C123.494 29.3817 122.542 28.5248 122.542 26.7474V19.7966H126.604V15.6705H122.542V10.4653H117.781V13.0044C117.781 14.7818 116.797 15.6705 115.02 15.6705H114.798V19.7966H117.781V26.7474C117.781 30.81 120.193 33.1904 124.383 33.1904ZM128.837 14.1153H133.598V9.35442H128.837V14.1153ZM128.837 33H133.598V15.6705H128.837V33ZM143.786 33.3809C147.944 33.3809 150.832 31.1909 150.832 27.9852C150.832 25.5096 149.182 23.7322 146.103 22.907L142.897 22.05C142.326 21.8913 141.12 21.5739 141.12 20.5266C141.12 19.6379 141.945 19.0983 143.342 19.0983C145.214 19.0983 146.706 19.987 147.277 21.4787L150.832 19.8283C149.721 17.0035 146.897 15.2896 143.342 15.2896C139.279 15.2896 136.518 17.4796 136.518 20.6853C136.518 23.0657 138.041 24.9065 141.184 25.7318L144.231 26.5252C144.834 26.6839 146.23 27.0331 146.23 28.1757C146.23 29.1278 145.278 29.7309 143.786 29.7309C141.818 29.7309 140.263 28.6835 139.343 26.7474L135.82 28.3978C136.899 31.54 140.009 33.3809 143.786 33.3809ZM161.36 33.1904C162.09 33.1904 162.947 33.127 163.582 33.0317V29.2865C163.137 29.35 162.756 29.3817 162.471 29.3817C160.471 29.3817 159.519 28.5248 159.519 26.7474V19.7966H163.582V15.6705H159.519V10.4653H154.758V13.0044C154.758 14.7818 153.774 15.6705 151.997 15.6705H151.775V19.7966H154.758V26.7474C154.758 30.81 157.17 33.1904 161.36 33.1904Z" fill="#181443"/>
<path fill-rule="evenodd" clip-rule="evenodd" d="M19.5171 8.72543C20.5039 9.15958 21.609 9.15958 22.5759 8.72543C23.168 8.46888 23.7008 8.13341 24.2533 7.83739C25.8321 6.96909 28.2594 5.60742 30.0947 5.60742C32.522 5.60742 34.7322 6.59413 36.3504 8.40968C37.9686 10.2252 38.8172 12.5933 38.8172 15.0206C38.8172 19.9937 36.6859 26.3086 34.7125 30.8475C33.7455 33.0775 32.6404 35.3469 31.259 37.34C31.0419 37.6558 30.4696 38.4452 29.9763 38.9385C29.5619 37.6953 29.2264 36.4125 28.8712 35.1495C28.4567 33.63 28.0621 32.1105 27.549 30.6107L30.1933 28.2426C32.0089 26.6244 33.2916 24.4931 33.8639 22.125C34.081 21.2369 34.2191 20.1318 34.081 19.2043C33.8047 16.3626 32.3247 13.6787 29.7395 12.3565C28.733 11.8434 27.6082 11.5672 26.4833 11.5672C24.352 11.5672 22.3589 12.4749 20.938 14.0339C19.5566 12.4947 17.6227 11.5672 15.5111 11.5672C14.3665 11.5672 13.2614 11.8237 12.2549 12.3565C9.66977 13.6787 8.1897 16.3626 7.91342 19.2043C7.77528 20.1121 7.93315 21.2369 8.1305 22.125C8.68305 24.4931 9.98551 26.6046 11.7813 28.2426L14.4652 30.6896C13.9126 32.3078 13.4982 33.9063 13.1627 35.0706C12.7878 36.3731 12.4326 37.6953 11.9984 38.978C11.4853 38.4846 10.913 37.6953 10.6959 37.3795C9.33428 35.4061 8.22916 33.1564 7.26219 30.9659C5.2493 26.3481 3.1772 20.0726 3.1772 15.0009C3.1772 12.5736 4.00604 10.2055 5.64398 8.38995C7.26219 6.5744 9.47242 5.58768 11.8997 5.58768C13.7547 5.58768 16.1623 6.92961 17.7608 7.81765C18.412 8.15314 18.9448 8.46888 19.5171 8.72543ZM26.3649 27.6111C25.3387 25.5192 23.7205 23.4669 21.1353 23.4669H20.9775C18.6291 23.4669 16.9912 25.3416 15.8071 27.69L13.9521 25.9929C12.6102 24.7693 11.6432 23.2301 11.2288 21.454C11.0906 20.8422 11.0117 20.2502 11.0512 19.6582C11.0512 19.6385 11.0512 19.599 11.0512 19.5792C11.209 17.7637 12.1365 15.9284 13.8337 15.1193C14.3862 14.8628 14.9585 14.7246 15.5703 14.7246C17.4056 14.7246 18.8659 15.8889 19.5566 17.5466L19.754 18.0005C19.971 18.4939 20.4446 18.8096 20.9775 18.8096C21.5103 18.8096 22.0037 18.4939 22.201 18.0005L22.3983 17.5466C23.1088 15.8692 24.7072 14.7246 26.5228 14.7246C27.1148 14.7246 27.6871 14.843 28.2199 15.0996C29.9565 15.9087 30.884 17.7834 31.0419 19.6187C31.0419 19.6384 31.0419 19.6779 31.0419 19.6977C31.1209 20.191 30.9827 20.9804 30.8643 21.454C30.4499 23.2103 29.5027 24.7891 28.141 25.9929L26.3649 27.6111ZM24.9243 33.038L21.8852 35.7613C21.3722 36.2152 20.6025 36.2152 20.1092 35.7613L17.2477 33.1761C16.8728 34.3996 16.5965 35.4653 16.4189 36.0179C15.9847 37.5571 15.5506 39.1161 14.998 40.6159C14.5836 41.7605 13.735 42.6683 12.4523 42.6683C10.617 42.6683 9.03827 40.6357 8.09103 39.2937C6.61096 37.1624 5.38744 34.6957 4.34152 32.3078C2.17076 27.2953 0 20.5462 0 15.0404C0 11.804 1.12485 8.66623 3.29561 6.23892C5.54531 3.73267 8.62385 2.33154 11.9984 2.33154C14.6033 2.33154 17.228 3.73267 19.4382 4.97593C19.754 5.15354 20.4052 5.54822 20.8591 5.74556C20.9775 5.80476 21.1156 5.80476 21.234 5.74556C21.6879 5.54822 22.3589 5.15354 22.6746 4.97593C24.8848 3.75241 27.5095 2.33154 30.0947 2.33154C33.4692 2.33154 36.5478 3.71294 38.7975 6.23892C40.9485 8.66623 42.0931 11.804 42.0931 15.0404C42.0931 20.4673 39.8631 27.2361 37.7318 32.1697C36.6859 34.5575 35.4624 37.0638 33.9823 39.2148C33.0548 40.5765 31.4563 42.6486 29.6211 42.6486C28.3383 42.6486 27.5095 41.7408 27.0951 40.5962C26.5623 39.1161 26.1478 37.5571 25.7334 36.0376C25.4966 35.0706 25.2203 34.0642 24.9243 33.038ZM20.9972 32.4065L23.8192 29.9002C23.7205 29.6634 23.6219 29.4464 23.5232 29.2293C23.1285 28.4004 22.2602 26.7428 21.1551 26.7428H20.9972C20.0302 26.7428 19.1225 28.2228 18.3726 29.9989L20.9972 32.4065Z" fill="#5D4FFF"/>
</svg>
